<svg width="49" height="30" viewBox="0 0 49 30" fill="none" xmlns="http://www.w3.org/2000/svg">
<path d="M47.0056 17C48.1102 17 49.0056 16.1046 49.0056 15C49.0056 13.8954 48.1102 13 47.0056 13V17ZM0.580301 13.5858C-0.200748 14.3668 -0.200748 15.6332 0.580301 16.4142L13.3082 29.1421C14.0893 29.9232 15.3556 29.9232 16.1367 29.1421C16.9177 28.3611 16.9177 27.0948 16.1367 26.3137L4.82294 15L16.1367 3.68629C16.9177 2.90524 16.9177 1.63891 16.1367 0.857864C15.3556 0.0768158 14.0893 0.0768158 13.3082 0.857864L0.580301 13.5858ZM47.0056 13H1.99451V17H47.0056V13Z" fill="#37402B"/>
</svg>
