<svg width="451" height="412" viewBox="0 0 451 412" fill="none" xmlns="http://www.w3.org/2000/svg">
<path d="M430.552 156.935H372.869L346.842 45.9306C342.164 25.377 319.616 14.7513 297.614 16.8632C297.229 12.2829 295.141 8.01333 291.762 4.89724C288.383 1.78114 283.959 0.0449126 279.362 0.03125H171.638C167.041 0.0449151 162.617 1.78096 159.238 4.89678C155.859 8.0126 153.771 12.2818 153.385 16.8619H144.984C135.917 16.4741 126.98 19.1205 119.587 24.3824C112.193 29.6443 106.765 37.2213 104.162 45.9146L78.1311 156.935H20.4485C15.027 156.94 9.8292 159.097 5.99562 162.93C2.16204 166.764 0.00579846 171.962 0 177.383V208.315C0.00584105 213.737 2.1621 218.935 5.99567 222.768C9.82924 226.602 15.027 228.758 20.4485 228.764H34.7182L71.5423 377.708C76.4228 397.441 97.5788 411.77 121.846 411.77H329.154C353.421 411.77 374.578 397.441 379.458 377.708L416.282 228.764H430.552C435.973 228.758 441.171 226.602 445.004 222.768C448.838 218.935 450.994 213.737 451 208.315V177.383C450.994 171.962 448.838 166.764 445.004 162.93C441.171 159.097 435.973 156.94 430.552 156.935ZM171.638 16.1386H279.362C279.972 16.1384 280.557 16.38 280.989 16.8105C281.421 17.241 281.665 17.8253 281.667 18.4352C281.667 18.4352 281.455 25.2332 281.667 25.8895C281.787 27.5836 281.63 30.0343 279.362 29.9963H171.638C168.1 29.6678 169.857 26.0597 169.334 23.9414C169.666 21.919 168.092 16.0885 171.638 16.1386ZM119.848 49.5798C121.619 44.4265 125.044 40.0034 129.591 36.9991C134.137 33.9949 139.549 32.5781 144.984 32.9693H154.089C155.215 36.7534 157.53 40.0742 160.691 42.4398C163.851 44.8055 167.69 46.0902 171.638 46.1036H279.362C283.31 46.0902 287.149 44.8055 290.31 42.4398C293.47 40.0742 295.785 36.7534 296.911 32.9693H306.017C311.454 32.5785 316.868 33.9972 321.416 37.0045C325.963 40.0118 329.388 44.4388 331.156 49.5956L356.324 156.935H94.6762L119.848 49.5798ZM363.822 373.838C360.696 386.485 346.115 395.664 329.154 395.664H121.846C104.885 395.664 90.3038 386.485 87.1776 373.838L51.31 228.764H399.69L363.822 373.838ZM434.893 208.315C434.891 209.466 434.433 210.57 433.62 211.383C432.806 212.197 431.702 212.655 430.552 212.657H20.4485C19.2976 212.655 18.1943 212.197 17.3805 211.383C16.5667 210.57 16.1088 209.466 16.1071 208.315V177.383C16.1088 176.232 16.5667 175.129 17.3805 174.315C18.1943 173.501 19.2976 173.044 20.4485 173.042H430.552C431.702 173.044 432.806 173.501 433.62 174.315C434.433 175.129 434.891 176.232 434.893 177.383V208.315Z" fill="#37402B"/>
<path d="M131.594 363.661C132.305 365.645 133.766 367.271 135.663 368.191C137.56 369.11 139.742 369.248 141.74 368.577C143.738 367.906 145.393 366.478 146.35 364.6C147.307 362.722 147.49 360.544 146.859 358.533L114.401 261.954C113.69 259.97 112.229 258.344 110.332 257.426C108.435 256.507 106.254 256.368 104.256 257.039C102.259 257.711 100.604 259.138 99.6463 261.016C98.6891 262.893 98.5059 265.071 99.1361 267.082L131.594 363.661Z" fill="black"/>
<path d="M309.21 368.733C311.235 369.407 313.444 369.252 315.355 368.301C317.266 367.351 318.723 365.682 319.406 363.66L351.865 267.08C352.211 266.076 352.354 265.012 352.288 263.952C352.221 262.891 351.945 261.855 351.475 260.901C351.006 259.948 350.352 259.097 349.553 258.398C348.753 257.698 347.823 257.164 346.815 256.825C345.808 256.487 344.744 256.351 343.684 256.426C342.624 256.501 341.589 256.785 340.64 257.262C339.69 257.738 338.844 258.398 338.151 259.203C337.457 260.008 336.93 260.943 336.599 261.953L304.141 358.532C303.804 359.535 303.668 360.594 303.74 361.649C303.812 362.705 304.092 363.735 304.562 364.683C305.033 365.63 305.686 366.475 306.483 367.17C307.281 367.865 308.207 368.396 309.21 368.733Z" fill="black"/>
<path d="M198.762 367.42C199.922 367.418 201.067 367.167 202.121 366.683C203.174 366.199 204.111 365.494 204.868 364.616C205.624 363.738 206.183 362.707 206.506 361.593C206.828 360.48 206.907 359.31 206.737 358.163L192.199 262.126C191.843 260.047 190.686 258.191 188.977 256.955C187.267 255.72 185.141 255.205 183.056 255.52C180.97 255.835 179.092 256.956 177.824 258.641C176.555 260.326 175.999 262.442 176.273 264.533L190.811 360.57C191.099 362.474 192.059 364.211 193.518 365.468C194.976 366.725 196.837 367.417 198.762 367.42Z" fill="black"/>
<path d="M250.423 367.374C252.545 367.607 254.673 366.99 256.341 365.657C258.009 364.325 259.081 362.385 259.322 360.264L270.061 264.227C270.182 263.175 270.093 262.109 269.801 261.091C269.509 260.073 269.019 259.123 268.359 258.294C267.699 257.466 266.883 256.776 265.956 256.264C265.029 255.752 264.01 255.427 262.958 255.309C261.905 255.191 260.84 255.282 259.822 255.577C258.805 255.871 257.856 256.363 257.029 257.025C256.202 257.687 255.514 258.505 255.004 259.433C254.494 260.361 254.172 261.381 254.056 262.434L243.317 358.471C243.079 360.594 243.694 362.724 245.026 364.394C246.359 366.063 248.3 367.135 250.423 367.374Z" fill="black"/>
</svg>
