<svg width="1107" height="1107" viewBox="0 0 1107 1107" fill="none" xmlns="http://www.w3.org/2000/svg">
<rect width="1107" height="1107" fill="black" fill-opacity="0.42"/>
<path d="M758.552 504.903H700.869L674.842 393.899C670.164 373.346 647.616 362.72 625.614 364.832C625.229 360.252 623.141 355.982 619.762 352.866C616.383 349.75 611.959 348.014 607.362 348H499.638C495.041 348.014 490.617 349.75 487.238 352.866C483.859 355.981 481.771 360.251 481.385 364.831H472.984C463.917 364.443 454.98 367.089 447.587 372.351C440.193 377.613 434.765 385.19 432.162 393.883L406.131 504.903H348.449C343.027 504.909 337.829 507.065 333.996 510.899C330.162 514.733 328.006 519.93 328 525.352V556.284C328.006 561.706 330.162 566.903 333.996 570.737C337.829 574.571 343.027 576.727 348.449 576.733H362.718L399.542 725.677C404.423 745.409 425.579 759.739 449.846 759.739H657.154C681.421 759.739 702.578 745.409 707.458 725.677L744.282 576.733H758.552C763.973 576.727 769.171 574.571 773.004 570.737C776.838 566.903 778.994 561.706 779 556.284V525.352C778.994 519.93 776.838 514.733 773.004 510.899C769.171 507.065 763.973 504.909 758.552 504.903ZM499.638 364.107H607.362C607.972 364.107 608.557 364.349 608.989 364.779C609.421 365.21 609.665 365.794 609.667 366.404C609.667 366.404 609.455 373.202 609.667 373.858C609.787 375.552 609.63 378.003 607.362 377.965H499.638C496.1 377.637 497.857 374.028 497.334 371.91C497.666 369.888 496.092 364.057 499.638 364.107ZM447.848 397.549C449.619 392.395 453.044 387.972 457.591 384.968C462.137 381.964 467.549 380.547 472.984 380.938H482.089C483.215 384.722 485.53 388.043 488.691 390.409C491.851 392.774 495.69 394.059 499.638 394.072H607.362C611.31 394.059 615.149 392.774 618.31 390.409C621.47 388.043 623.785 384.722 624.911 380.938H634.017C639.454 380.547 644.868 381.966 649.416 384.973C653.963 387.981 657.388 392.408 659.156 397.564L684.324 504.903H422.676L447.848 397.549ZM691.822 721.807C688.696 734.454 674.115 743.632 657.154 743.632H449.846C432.885 743.632 418.304 734.454 415.178 721.807L379.31 576.733H727.69L691.822 721.807ZM762.893 556.284C762.891 557.435 762.433 558.538 761.62 559.352C760.806 560.166 759.702 560.624 758.552 560.626H348.449C347.298 560.624 346.194 560.166 345.38 559.352C344.567 558.538 344.109 557.435 344.107 556.284V525.352C344.109 524.201 344.567 523.098 345.381 522.284C346.194 521.47 347.298 521.012 348.449 521.011H758.552C759.702 521.012 760.806 521.47 761.62 522.284C762.433 523.098 762.891 524.201 762.893 525.352V556.284Z" fill="white"/>
<path d="M459.594 711.63C460.305 713.614 461.766 715.24 463.663 716.159C465.56 717.078 467.742 717.217 469.74 716.546C471.738 715.875 473.393 714.447 474.35 712.569C475.307 710.691 475.49 708.513 474.859 706.502L442.401 609.922C441.69 607.939 440.229 606.313 438.332 605.394C436.435 604.476 434.254 604.337 432.256 605.008C430.259 605.679 428.604 607.107 427.646 608.984C426.689 610.862 426.506 613.04 427.136 615.051L459.594 711.63Z" fill="white"/>
<path d="M637.21 716.702C639.235 717.376 641.445 717.221 643.356 716.27C645.267 715.32 646.723 713.651 647.407 711.629L679.865 615.049C680.211 614.044 680.355 612.981 680.288 611.921C680.221 610.86 679.945 609.823 679.476 608.87C679.006 607.917 678.353 607.066 677.553 606.366C676.753 605.667 675.823 605.132 674.816 604.794C673.809 604.456 672.744 604.32 671.684 604.395C670.624 604.47 669.59 604.754 668.64 605.231C667.691 605.707 666.845 606.367 666.151 607.172C665.458 607.977 664.93 608.912 664.6 609.921L632.142 706.501C631.805 707.504 631.668 708.563 631.74 709.618C631.813 710.673 632.092 711.704 632.563 712.651C633.034 713.599 633.686 714.444 634.484 715.139C635.281 715.834 636.208 716.365 637.21 716.702Z" fill="white"/>
<path d="M526.763 715.389C527.922 715.387 529.068 715.136 530.121 714.652C531.175 714.168 532.111 713.463 532.868 712.585C533.625 711.707 534.183 710.676 534.506 709.562C534.829 708.449 534.908 707.279 534.738 706.132L520.2 610.095C519.844 608.016 518.687 606.159 516.977 604.924C515.268 603.689 513.142 603.174 511.056 603.489C508.971 603.804 507.092 604.925 505.824 606.61C504.556 608.295 503.999 610.411 504.274 612.502L518.812 708.539C519.099 710.442 520.059 712.18 521.518 713.437C522.977 714.694 524.838 715.386 526.763 715.389Z" fill="white"/>
<path d="M578.423 715.343C580.545 715.576 582.673 714.958 584.341 713.626C586.009 712.293 587.081 710.354 587.322 708.233L598.061 612.196C598.182 611.143 598.093 610.078 597.801 609.06C597.509 608.042 597.019 607.092 596.359 606.263C595.699 605.435 594.883 604.745 593.956 604.233C593.029 603.72 592.01 603.396 590.958 603.278C589.905 603.16 588.84 603.251 587.822 603.545C586.805 603.84 585.856 604.332 585.029 604.994C584.202 605.656 583.514 606.474 583.004 607.402C582.494 608.33 582.172 609.35 582.056 610.402L571.317 706.44C571.079 708.563 571.694 710.693 573.026 712.363C574.359 714.032 576.3 715.104 578.423 715.343Z" fill="white"/>
</svg>
